<svg width="19" height="18" viewBox="0 0 19 18" fill="none" xmlns="http://www.w3.org/2000/svg">
<g filter="url(#filter0_d_1_381)">
<path d="M11.1722 0.00012207H13.7032C14.0548 0.00012207 14.3536 0.132713 14.5997 0.397819C14.8457 0.662975 14.9688 0.984924 14.9688 1.36379V4.09103C14.9688 4.46987 14.8458 4.79177 14.5997 5.05687C14.3536 5.32195 14.0547 5.45459 13.7032 5.45459H12.2268C12.0511 5.45459 11.9017 5.52091 11.7786 5.65345C11.6556 5.78592 11.5941 5.94699 11.5941 6.13648V6.36362C11.5941 6.86555 11.7589 7.29392 12.0884 7.6491C12.4179 8.00411 12.8156 8.18168 13.2814 8.18168H13.7032C13.8175 8.18168 13.9164 8.22678 13.9999 8.31668C14.0834 8.40659 14.1251 8.51316 14.1251 8.63627V9.54547C14.1251 9.66839 14.0834 9.77516 13.9999 9.86508C13.9163 9.95496 13.8176 10.0001 13.7032 10.0001H13.2814C12.8244 10.0001 12.3883 9.90406 11.973 9.71237C11.5577 9.52065 11.1985 9.26134 10.8953 8.93461C10.5922 8.60786 10.3516 8.22089 10.1736 7.77341C9.99571 7.32596 9.90671 6.85605 9.90671 6.36365V1.36369C9.90671 0.984825 10.0298 0.662901 10.2758 0.397794C10.5218 0.132688 10.8207 0.00012207 11.1722 0.00012207Z" fill="#F6762C"/>
<path d="M4.36976 0.397697C4.61577 0.132591 4.91457 0 5.26615 0H7.79711C8.14869 0 8.44747 0.132591 8.69349 0.397697C8.9395 0.662878 9.0625 0.984802 9.0625 1.36367V4.0909C9.0625 4.46974 8.9395 4.79164 8.69349 5.05675C8.44747 5.32183 8.14866 5.45447 7.79711 5.45447H6.32069C6.14498 5.45447 5.99543 5.52079 5.87241 5.65333C5.7495 5.78587 5.68786 5.94687 5.68786 6.13635V6.3635C5.68786 6.86543 5.85267 7.2938 6.18227 7.64898C6.5118 8.00399 6.90934 8.18156 7.37524 8.18156H7.79711C7.91134 8.18156 8.01026 8.22666 8.0937 8.31656C8.1772 8.40647 8.21901 8.51303 8.21901 8.63615V9.54535C8.21901 9.66826 8.1772 9.77503 8.0937 9.86496C8.01029 9.95484 7.91136 9.99996 7.79711 9.99996H7.37524C6.91827 9.99996 6.48218 9.90394 6.06686 9.71224C5.65168 9.52052 5.29253 9.26121 4.9893 8.93449C4.68609 8.60774 4.44535 8.22066 4.26752 7.77329C4.08962 7.32594 4.00057 6.85593 4.00057 6.36353V1.36357C4.00064 0.984703 4.12358 0.662779 4.36976 0.397697Z" fill="#F6762C"/>
</g>
<defs>
<filter id="filter0_d_1_381" x="0.000488281" y="0" width="18.9683" height="18.0001" filterUnits="userSpaceOnUse" color-interpolation-filters="sRGB">
<feFlood flood-opacity="0" result="BackgroundImageFix"/>
<feColorMatrix in="SourceAlpha" type="matrix" values="0 0 0 0 0 0 0 0 0 0 0 0 0 0 0 0 0 0 127 0" result="hardAlpha"/>
<feOffset dy="4"/>
<feGaussianBlur stdDeviation="2"/>
<feComposite in2="hardAlpha" operator="out"/>
<feColorMatrix type="matrix" values="0 0 0 0 0 0 0 0 0 0 0 0 0 0 0 0 0 0 0.25 0"/>
<feBlend mode="normal" in2="BackgroundImageFix" result="effect1_dropShadow_1_381"/>
<feBlend mode="normal" in="SourceGraphic" in2="effect1_dropShadow_1_381" result="shape"/>
</filter>
</defs>
</svg>
