<svg width="60" height="52" viewBox="0 0 60 52" fill="none" xmlns="http://www.w3.org/2000/svg">
<g filter="url(#filter0_d_1_88)">
<path d="M41.3988 36.5498V14.45H7.39893V36.5498C7.39893 37.4888 8.15999 38.2498 9.09892 38.2498H39.6988C40.6377 38.2498 41.3988 37.4888 41.3988 36.5498Z" fill="#289BC3"/>
<path d="M17.6015 33.1498H14.2015C11.3849 33.1498 9.10156 35.4331 9.10156 38.2498C9.10156 41.0664 11.3849 43.3497 14.2015 43.3497H17.6015C20.4182 43.3497 22.7015 41.0664 22.7015 38.2498C22.7015 35.4331 20.4182 33.1498 17.6015 33.1498Z" fill="#32283C"/>
<path d="M48.1987 33.1498H44.7987C41.982 33.1498 39.6987 35.4331 39.6987 38.2498C39.6987 41.0665 41.982 43.3498 44.7987 43.3498H48.1987C51.0154 43.3498 53.2987 41.0665 53.2987 38.2498C53.2987 35.4331 51.0154 33.1498 48.1987 33.1498Z" fill="#32283C"/>
<path d="M44.7987 43.3498C47.6153 43.3498 49.8987 41.0665 49.8987 38.2498C49.8987 35.4332 47.6153 33.1498 44.7987 33.1498C41.9821 33.1498 39.6987 35.4332 39.6987 38.2498C39.6987 41.0665 41.9821 43.3498 44.7987 43.3498Z" fill="#555A6E"/>
<path d="M44.7976 39.9498C45.7365 39.9498 46.4976 39.1887 46.4976 38.2498C46.4976 37.3109 45.7365 36.5498 44.7976 36.5498C43.8588 36.5498 43.0977 37.3109 43.0977 38.2498C43.0977 39.1887 43.8588 39.9498 44.7976 39.9498Z" fill="#E6E6EB"/>
<path d="M34.601 33.1498H31.201C28.3844 33.1498 26.1011 35.4331 26.1011 38.2498C26.1011 41.0665 28.3844 43.3498 31.201 43.3498H34.601C37.4177 43.3498 39.701 41.0665 39.701 38.2498C39.701 35.4331 37.4177 33.1498 34.601 33.1498Z" fill="#32283C"/>
<path d="M51.6022 16.15H26.1023C25.1634 16.15 24.4023 16.911 24.4023 17.85V19.5499H51.6022C52.5411 19.5499 53.3022 18.7889 53.3022 17.85C53.3022 16.911 52.5411 16.15 51.6022 16.15Z" fill="#A5C3DC"/>
<path d="M34.6023 16.15H26.1023C25.1634 16.15 24.4023 16.911 24.4023 17.85V19.5499H34.6023C35.5412 19.5499 36.3023 18.7889 36.3023 17.85C36.3023 16.911 35.5412 16.15 34.6023 16.15Z" fill="#D7E6F0"/>
<path d="M24.4023 19.5499H51.6022V28.0498H24.4023V19.5499Z" fill="#463C4B"/>
<path d="M24.4023 19.5499H34.6023V28.0498H24.4023V19.5499Z" fill="#555A6E"/>
<path d="M53.3022 38.2498H26.1023C25.1634 38.2498 24.4023 37.4887 24.4023 36.5498V28.0498H51.6022C53.4799 28.0498 55.0022 29.572 55.0022 31.4498V36.5498C55.0022 37.4887 54.2411 38.2498 53.3022 38.2498Z" fill="#A5C3DC"/>
<path d="M36.3023 38.2498H26.1023C25.1634 38.2498 24.4023 37.4887 24.4023 36.5498V28.0498H34.6023C36.48 28.0498 38.0023 29.572 38.0023 31.4498V36.5498C38.0023 37.4887 37.2412 38.2498 36.3023 38.2498Z" fill="#D7E6F0"/>
<path d="M42.1072 31.4498H50.8905C52.2206 31.4498 53.2988 32.528 53.2988 33.8582C53.2988 35.1882 52.2205 36.2665 50.8904 36.2665H42.1071C40.7771 36.2665 39.6987 35.1883 39.6987 33.8582C39.6988 32.528 40.7771 31.4498 42.1072 31.4498Z" fill="#555A6E"/>
<path d="M42.1109 35.1332C42.8151 35.1332 43.3859 34.5623 43.3859 33.8582C43.3859 33.154 42.8151 32.5832 42.1109 32.5832C41.4068 32.5832 40.8359 33.154 40.8359 33.8582C40.8359 34.5623 41.4068 35.1332 42.1109 35.1332Z" fill="#00D2D2"/>
<path d="M50.8883 35.1332C51.5924 35.1332 52.1633 34.5623 52.1633 33.8582C52.1633 33.154 51.5924 32.5832 50.8883 32.5832C50.1841 32.5832 49.6133 33.154 49.6133 33.8582C49.6133 34.5623 50.1841 35.1332 50.8883 35.1332Z" fill="#00D2D2"/>
<path d="M20.1497 0H15.0497C14.5803 0 14.1997 0.380586 14.1997 0.849996C14.1997 1.31941 14.5803 1.69999 15.0497 1.69999C18.3305 1.69999 20.9997 4.36919 20.9997 7.64996C20.9997 8.11937 21.3803 8.49996 21.8497 8.49996H26.9496C27.4191 8.49996 27.7996 8.11937 27.7996 7.64996C27.7996 3.43175 24.3679 0 20.1497 0Z" fill="#A5C3DC"/>
<path d="M33.7494 0H28.6495C24.4313 0 20.9995 3.43175 20.9995 7.64996C20.9995 8.11937 21.3801 8.49996 21.8495 8.49996H26.9495C27.4189 8.49996 27.7995 8.11937 27.7995 7.64996C27.7995 4.36919 30.4687 1.69999 33.7494 1.69999C34.2189 1.69999 34.5994 1.31941 34.5994 0.849996C34.5994 0.380586 34.2189 0 33.7494 0Z" fill="#A5C3DC"/>
<path d="M37.1497 0H32.0497C31.5803 0 31.1997 0.380586 31.1997 0.849996C31.1997 1.31941 31.5803 1.69999 32.0497 1.69999C33.4558 1.69999 34.5997 2.84387 34.5997 4.24998C34.5997 5.65608 33.4558 6.79996 32.0497 6.79996C31.5803 6.79996 31.1997 7.18055 31.1997 7.64996C31.1997 8.11937 31.5803 8.49996 32.0497 8.49996H37.1497C39.4931 8.49996 41.3997 6.59342 41.3997 4.24998C41.3997 1.90654 39.4931 0 37.1497 0Z" fill="#A5C3DC"/>
<path d="M16.7489 6.79996C15.3428 6.79996 14.1989 5.65608 14.1989 4.24998C14.1989 2.84387 15.3428 1.69999 16.7489 1.69999C17.2183 1.69999 17.5989 1.31941 17.5989 0.849996C17.5989 0.380586 17.2183 0 16.7489 0H11.6489C9.30547 0 7.39893 1.90654 7.39893 4.24998C7.39893 6.59342 9.30547 8.49996 11.6489 8.49996H16.7489C17.2183 8.49996 17.5989 8.11937 17.5989 7.64996C17.5989 7.18055 17.2183 6.79996 16.7489 6.79996Z" fill="#A5C3DC"/>
<path d="M43.0998 8.49994H5.69999C4.76106 8.49994 4 9.261 4 10.1999V12.7499C4 13.6888 4.76106 14.4499 5.69999 14.4499H43.0998C44.0387 14.4499 44.7998 13.6888 44.7998 12.7499V10.1999C44.7998 9.261 44.0387 8.49994 43.0998 8.49994Z" fill="#289BC3"/>
<path d="M22.6988 38.2498H9.09892C8.15999 38.2498 7.39893 37.4887 7.39893 36.5498V19.5499H24.3988V36.5498C24.3988 37.4887 23.6378 38.2498 22.6988 38.2498Z" fill="#00D2D2"/>
<path d="M24.3999 8.49994H5.69999C4.76106 8.49994 4 9.261 4 10.1999V12.7499C4 13.6888 4.76106 14.4499 5.69999 14.4499H24.3999C25.3388 14.4499 26.0999 13.6888 26.0999 12.7499V10.1999C26.0999 9.261 25.3388 8.49994 24.3999 8.49994Z" fill="#00D2D2"/>
<path d="M15.8978 12.7499C15.8978 13.6888 16.6589 14.4499 17.5978 14.4499H12.4978C11.5589 14.4499 10.7979 13.6888 10.7979 12.7499V10.1999C10.7979 9.261 11.5589 8.49994 12.4978 8.49994H17.5978C16.6589 8.49994 15.8978 9.261 15.8978 10.1999V12.7499Z" fill="#D7E6F0"/>
<path d="M32.9031 12.75C32.9031 13.6889 32.1421 14.45 31.2031 14.45H36.3031C37.242 14.45 38.0031 13.6889 38.0031 12.75V10.2C38.0031 9.26106 37.242 8.5 36.3031 8.5H31.2031C32.1421 8.5 32.9031 9.26106 32.9031 10.2V12.75Z" fill="#A5C3DC"/>
<path d="M32.0529 8.49996H21.0029V7.64996C21.0029 3.43175 24.4347 0 28.6529 0H32.0529C34.3963 0 36.3028 1.90654 36.3028 4.24998C36.3028 6.59342 34.3963 8.49996 32.0529 8.49996ZM22.7635 6.79996H32.0529C33.459 6.79996 34.6029 5.65608 34.6029 4.24998C34.6029 2.84387 33.459 1.69999 32.0529 1.69999H28.6529C25.6606 1.69999 23.1771 3.92029 22.7635 6.79996Z" fill="#D7E6F0"/>
<path d="M22.6988 8.49996H11.6489C9.30547 8.49996 7.39893 6.59342 7.39893 4.24998C7.39893 1.90654 9.30547 0 11.6489 0H15.0489C19.2671 0 22.6988 3.43175 22.6988 7.64996V8.49996ZM11.6489 1.69999C10.2428 1.69999 9.09892 2.84387 9.09892 4.24998C9.09892 5.65608 10.2428 6.79996 11.6489 6.79996H20.9383C20.5246 3.92029 18.0411 1.69999 15.0489 1.69999H11.6489Z" fill="#D7E6F0"/>
<path d="M31.201 43.3498C34.0177 43.3498 36.301 41.0665 36.301 38.2498C36.301 35.4332 34.0177 33.1498 31.201 33.1498C28.3844 33.1498 26.1011 35.4332 26.1011 38.2498C26.1011 41.0665 28.3844 43.3498 31.201 43.3498Z" fill="#555A6E"/>
<path d="M31.2 39.9498C32.1389 39.9498 32.9 39.1887 32.9 38.2498C32.9 37.3109 32.1389 36.5498 31.2 36.5498C30.2611 36.5498 29.5 37.3109 29.5 38.2498C29.5 39.1887 30.2611 39.9498 31.2 39.9498Z" fill="#E6E6EB"/>
<path d="M14.2015 43.3497C17.0182 43.3497 19.3015 41.0664 19.3015 38.2498C19.3015 35.4331 17.0182 33.1498 14.2015 33.1498C11.3849 33.1498 9.10156 35.4331 9.10156 38.2498C9.10156 41.0664 11.3849 43.3497 14.2015 43.3497Z" fill="#555A6E"/>
<path d="M14.1966 39.9498C15.1355 39.9498 15.8966 39.1887 15.8966 38.2498C15.8966 37.3109 15.1355 36.5498 14.1966 36.5498C13.2577 36.5498 12.4966 37.3109 12.4966 38.2498C12.4966 39.1887 13.2577 39.9498 14.1966 39.9498Z" fill="#E6E6EB"/>
</g>
<defs>
<filter id="filter0_d_1_88" x="0" y="0" width="59.002" height="51.3498" filterUnits="userSpaceOnUse" color-interpolation-filters="sRGB">
<feFlood flood-opacity="0" result="BackgroundImageFix"/>
<feColorMatrix in="SourceAlpha" type="matrix" values="0 0 0 0 0 0 0 0 0 0 0 0 0 0 0 0 0 0 127 0" result="hardAlpha"/>
<feOffset dy="4"/>
<feGaussianBlur stdDeviation="2"/>
<feComposite in2="hardAlpha" operator="out"/>
<feColorMatrix type="matrix" values="0 0 0 0 0 0 0 0 0 0 0 0 0 0 0 0 0 0 0.25 0"/>
<feBlend mode="normal" in2="BackgroundImageFix" result="effect1_dropShadow_1_88"/>
<feBlend mode="normal" in="SourceGraphic" in2="effect1_dropShadow_1_88" result="shape"/>
</filter>
</defs>
</svg>
